<?xml version="1.0" encoding="UTF-8" ?>
<!DOCTYPE svg PUBLIC "-//W3C//DTD SVG 1.1//EN" "http://www.w3.org/Graphics/SVG/1.1/DTD/svg11.dtd">
<svg width="1216pt" height="1292pt" viewBox="0 0 1216 1292" version="1.1" xmlns="http://www.w3.org/2000/svg">
<g id="#193d3eff">
<path fill="#193d3e" opacity="1.00" d=" M 395.22 68.27 C 436.59 27.64 494.16 4.61 551.99 3.69 C 591.45 3.25 631.20 12.13 666.06 30.83 C 699.57 48.57 728.75 74.56 749.73 106.19 C 792.96 97.67 839.16 101.91 879.12 120.96 C 911.17 136.04 939.03 159.76 959.09 188.94 C 974.13 210.37 984.54 235.01 989.13 260.79 C 993.24 283.29 993.34 306.49 989.64 329.05 C 983.75 361.28 968.88 391.70 947.66 416.61 C 929.68 437.58 907.23 455.07 881.58 465.60 C 871.58 469.85 861.15 473.31 850.33 474.63 C 849.32 481.04 849.54 487.54 849.53 494.01 C 849.54 516.43 849.32 538.86 850.07 561.27 C 881.38 567.56 909.87 584.22 933.17 605.74 C 946.50 618.20 958.87 631.84 968.73 647.24 C 985.71 673.52 996.42 703.98 998.73 735.23 C 998.83 737.39 999.77 740.23 1002.33 740.42 C 1019.34 742.96 1035.47 749.84 1049.87 759.13 C 1062.33 767.35 1074.20 776.85 1083.15 788.93 C 1095.18 804.79 1102.99 823.59 1107.13 843.00 C 1108.58 850.24 1109.94 857.55 1109.98 864.96 C 1110.29 881.39 1111.60 898.18 1107.31 914.25 C 1102.89 929.06 1099.18 944.54 1090.50 957.55 C 1070.24 987.01 1038.08 1008.88 1002.33 1013.70 C 1003.01 1057.12 994.05 1100.89 974.81 1139.93 C 945.72 1199.12 893.50 1246.36 831.91 1269.86 C 802.30 1281.34 770.59 1286.44 738.97 1287.88 C 624.97 1287.96 510.96 1287.80 396.95 1287.95 C 377.32 1288.18 357.60 1287.92 338.17 1284.80 C 299.07 1278.90 261.11 1264.77 228.19 1242.78 C 189.91 1217.10 158.40 1181.33 138.12 1139.91 C 119.34 1101.06 111.14 1057.59 111.71 1014.58 C 80.26 1009.92 51.80 991.64 32.21 966.92 C 8.19 936.91 -2.04 897.00 2.07 859.01 C 5.24 829.69 16.95 800.84 37.28 779.21 C 57.24 757.87 84.54 743.50 113.48 739.34 C 115.11 704.62 127.68 670.88 147.46 642.47 C 169.22 611.16 199.44 585.69 234.29 570.14 C 243.11 566.23 252.34 563.18 261.84 561.42 C 262.12 532.89 261.96 504.36 261.96 475.83 C 208.82 464.87 162.93 427.06 139.15 378.68 C 107.70 314.47 116.05 232.12 161.76 176.74 C 195.73 134.22 247.80 107.05 301.95 102.56 C 322.66 100.89 343.50 102.65 363.91 106.31 C 373.65 93.09 383.66 79.98 395.22 68.27 M 470.35 81.35 C 441.35 97.98 417.27 123.09 401.85 152.76 C 400.10 156.02 398.76 159.56 396.39 162.44 C 391.73 167.96 384.14 171.12 376.96 169.74 C 362.96 166.73 349.42 161.42 335.07 160.22 C 316.68 158.85 297.92 158.76 279.92 163.24 C 261.71 167.83 244.46 176.15 229.51 187.50 C 205.56 205.48 187.87 231.78 180.99 260.98 C 177.13 277.68 176.89 294.99 178.13 312.02 C 180.69 338.31 192.86 363.10 210.19 382.80 C 228.75 402.23 253.36 416.04 279.87 420.83 C 288.43 422.76 297.49 422.79 305.60 426.44 C 313.94 430.12 320.06 438.78 320.00 448.00 C 319.98 482.00 319.99 515.99 320.00 549.99 C 477.96 550.01 635.92 550.01 793.88 549.99 C 793.17 524.00 793.67 498.01 793.36 472.02 C 793.34 463.66 792.97 455.30 793.40 446.95 C 793.64 441.53 795.35 436.07 799.07 432.02 C 803.74 425.93 811.78 424.38 818.97 423.53 C 846.43 420.46 873.58 409.95 894.11 391.11 C 917.69 370.67 932.34 340.82 935.82 309.97 C 936.08 300.65 936.10 291.31 935.87 282.00 C 933.12 254.60 921.74 228.16 903.62 207.41 C 881.05 181.25 848.23 164.72 814.13 160.22 C 795.72 158.95 776.97 158.82 758.89 163.01 C 751.13 164.74 743.74 167.83 735.96 169.46 C 730.39 170.76 724.59 168.94 719.94 165.86 C 715.52 162.37 713.53 156.91 711.10 152.02 C 702.27 133.37 689.36 116.76 673.86 103.18 C 647.72 80.22 614.52 65.64 580.07 61.17 C 567.48 59.01 554.69 60.38 542.01 60.09 C 516.96 61.83 492.34 69.24 470.35 81.35 M 306.52 609.88 C 285.77 611.95 265.32 617.89 247.05 628.02 C 220.10 643.14 197.97 666.61 184.42 694.39 C 176.58 709.98 171.93 726.96 168.89 744.08 C 164.77 768.84 166.22 794.03 166.02 819.01 C 166.03 875.68 165.91 932.35 166.08 989.01 C 165.99 1006.35 166.04 1023.73 168.41 1040.94 C 171.78 1071.34 181.13 1101.12 196.53 1127.58 C 214.85 1159.06 241.36 1186.06 273.44 1203.51 C 307.57 1222.60 347.08 1231.22 386.05 1229.95 C 500.04 1230.05 614.03 1229.98 728.01 1229.89 C 735.63 1229.79 743.29 1230.24 750.87 1229.21 C 784.27 1226.37 817.26 1216.38 845.96 1198.90 C 874.67 1181.52 899.24 1157.10 916.00 1127.96 C 937.62 1092.08 946.74 1049.60 945.97 1007.98 C 946.04 926.31 946.06 844.64 945.97 762.97 C 944.94 739.06 938.96 715.32 928.20 693.92 C 918.53 674.42 904.40 657.29 887.51 643.61 C 863.36 624.01 833.37 610.63 802.04 609.32 C 782.40 608.15 762.71 608.89 743.05 608.71 C 659.68 608.69 576.31 608.67 492.93 608.65 C 441.28 608.84 389.62 608.44 337.96 608.87 C 327.48 609.04 316.96 608.79 306.52 609.88 M 69.55 826.59 C 61.31 838.80 57.32 853.44 56.03 868.00 C 54.41 887.59 58.76 907.86 69.48 924.46 C 79.40 939.96 94.27 952.71 111.98 958.28 C 111.65 903.47 112.21 848.67 111.64 793.86 C 94.78 800.23 79.65 811.58 69.55 826.59 M 1002.57 794.28 C 1003.13 848.81 1002.99 903.34 1002.74 957.87 C 1018.65 951.60 1033.10 941.00 1042.73 926.75 C 1051.71 913.28 1056.39 897.15 1056.70 881.00 C 1057.08 863.75 1054.08 845.98 1045.19 830.98 C 1035.64 814.43 1020.37 801.26 1002.57 794.28 Z" />
<path fill="#193d3e" opacity="1.00" d=" M 327.60 663.80 C 340.37 662.41 353.23 662.68 366.05 662.67 C 497.04 662.77 628.04 662.75 759.03 662.66 C 778.28 662.81 798.03 663.74 816.16 670.85 C 857.78 685.80 890.59 723.46 898.93 766.99 C 901.09 777.51 901.11 788.28 901.00 798.96 C 901.29 827.98 900.93 856.99 900.98 886.01 C 900.06 920.30 883.00 952.96 857.73 975.70 C 835.25 996.09 805.59 1009.05 775.05 1009.35 C 642.70 1009.45 510.35 1009.44 378.00 1009.44 C 364.67 1009.29 351.32 1009.72 338.00 1009.14 C 308.29 1008.75 279.50 996.06 257.33 976.63 C 231.60 953.88 214.89 921.18 211.84 886.95 C 211.21 856.31 211.46 825.66 211.55 795.02 C 210.47 756.81 228.11 718.85 257.01 694.04 C 276.66 676.89 301.91 667.09 327.60 663.80 M 384.07 791.06 C 367.93 793.68 352.78 803.30 344.66 817.65 C 339.60 826.91 336.53 837.44 336.97 848.06 C 337.52 862.47 343.19 877.08 354.03 886.86 C 364.73 896.67 379.40 902.19 393.93 901.36 C 403.55 900.15 413.32 897.82 421.61 892.59 C 428.85 887.72 435.48 881.66 439.84 874.01 C 445.54 864.06 448.84 852.34 447.27 840.85 C 445.03 821.86 433.07 803.87 415.55 795.76 C 405.72 791.62 394.72 788.65 384.07 791.06 M 710.41 791.62 C 692.31 795.22 676.27 808.50 670.04 825.96 C 665.21 838.29 664.98 852.32 669.28 864.84 C 674.52 880.75 688.13 893.29 703.93 898.41 C 713.69 901.31 724.20 902.07 734.17 899.74 C 748.87 896.41 762.56 887.38 770.21 874.22 C 776.32 864.35 779.07 852.51 777.80 840.95 C 775.97 821.81 763.52 804.00 746.06 795.89 C 734.97 790.98 722.34 788.43 710.41 791.62 Z" />
<path fill="#193d3e" opacity="1.00" d=" M 423.20 1062.27 C 429.39 1061.03 436.02 1062.24 441.30 1065.74 C 448.92 1070.34 453.20 1078.50 459.68 1084.36 C 489.77 1113.00 533.12 1126.08 574.14 1121.19 C 602.33 1117.91 629.50 1105.67 650.29 1086.29 C 656.38 1080.70 661.61 1074.25 667.81 1068.79 C 674.16 1063.11 683.27 1060.34 691.62 1062.51 C 702.82 1065.56 711.53 1075.75 713.34 1087.14 C 714.69 1096.20 710.63 1105.17 704.91 1111.98 C 682.90 1136.74 655.38 1156.99 624.13 1168.39 C 581.83 1184.05 534.27 1183.65 491.68 1169.29 C 457.98 1158.27 427.72 1136.97 405.78 1109.14 C 395.46 1096.65 398.91 1076.12 411.91 1066.86 C 415.22 1064.41 419.20 1063.07 423.20 1062.27 Z" />
</g>
<g id="#5ea37dff">
<path fill="#5ea37d" opacity="1.00" d=" M 470.35 81.35 C 492.34 69.24 516.96 61.83 542.01 60.09 C 554.69 60.38 567.48 59.01 580.07 61.17 C 614.52 65.64 647.72 80.22 673.86 103.18 C 689.36 116.76 702.27 133.37 711.10 152.02 C 713.53 156.91 715.52 162.37 719.94 165.86 C 724.59 168.94 730.39 170.76 735.96 169.46 C 743.74 167.83 751.13 164.74 758.89 163.01 C 776.97 158.82 795.72 158.95 814.13 160.22 C 848.23 164.72 881.05 181.25 903.62 207.41 C 921.74 228.16 933.12 254.60 935.87 282.00 C 936.10 291.31 936.08 300.65 935.82 309.97 C 932.34 340.82 917.69 370.67 894.11 391.11 C 873.58 409.95 846.43 420.46 818.97 423.53 C 811.78 424.38 803.74 425.93 799.07 432.02 C 795.35 436.07 793.64 441.53 793.40 446.95 C 792.97 455.30 793.34 463.66 793.36 472.02 C 793.67 498.01 793.17 524.00 793.88 549.99 C 635.92 550.01 477.96 550.01 320.00 549.99 C 319.99 515.99 319.98 482.00 320.00 448.00 C 320.06 438.78 313.94 430.12 305.60 426.44 C 297.49 422.79 288.43 422.76 279.87 420.83 C 253.36 416.04 228.75 402.23 210.19 382.80 C 192.86 363.10 180.69 338.31 178.13 312.02 C 176.89 294.99 177.13 277.68 180.99 260.98 C 187.87 231.78 205.56 205.48 229.51 187.50 C 244.46 176.15 261.71 167.83 279.92 163.24 C 297.92 158.76 316.68 158.85 335.07 160.22 C 349.42 161.42 362.96 166.73 376.96 169.74 C 384.14 171.12 391.73 167.96 396.39 162.44 C 398.76 159.56 400.10 156.02 401.85 152.76 C 417.27 123.09 441.35 97.98 470.35 81.35 Z" />
<path fill="#5ea37d" opacity="1.00" d=" M 69.55 826.59 C 79.65 811.58 94.78 800.23 111.64 793.86 C 112.21 848.67 111.65 903.47 111.98 958.28 C 94.27 952.71 79.40 939.96 69.48 924.46 C 58.76 907.86 54.41 887.59 56.03 868.00 C 57.32 853.44 61.31 838.80 69.55 826.59 Z" />
<path fill="#5ea37d" opacity="1.00" d=" M 1002.57 794.28 C 1020.37 801.26 1035.64 814.43 1045.19 830.98 C 1054.08 845.98 1057.08 863.75 1056.70 881.00 C 1056.39 897.15 1051.71 913.28 1042.73 926.75 C 1033.10 941.00 1018.65 951.60 1002.74 957.87 C 1002.99 903.34 1003.13 848.81 1002.57 794.28 Z" />
</g>
<g id="#ffffffff">
<path fill="#ffffff" opacity="1.00" d=" M 306.52 609.88 C 316.96 608.79 327.48 609.04 337.96 608.87 C 389.62 608.44 441.28 608.84 492.93 608.65 C 576.31 608.67 659.68 608.69 743.05 608.71 C 762.71 608.89 782.40 608.15 802.04 609.32 C 833.37 610.63 863.36 624.01 887.51 643.61 C 904.40 657.29 918.53 674.42 928.20 693.92 C 938.96 715.32 944.94 739.06 945.97 762.97 C 946.06 844.64 946.04 926.31 945.97 1007.98 C 946.74 1049.60 937.62 1092.08 916.00 1127.96 C 899.24 1157.10 874.67 1181.52 845.96 1198.90 C 817.26 1216.38 784.27 1226.37 750.87 1229.21 C 743.29 1230.24 735.63 1229.79 728.01 1229.89 C 614.03 1229.98 500.04 1230.05 386.05 1229.95 C 347.08 1231.22 307.57 1222.60 273.44 1203.51 C 241.36 1186.06 214.85 1159.06 196.53 1127.58 C 181.13 1101.12 171.78 1071.34 168.41 1040.94 C 166.04 1023.73 165.99 1006.35 166.08 989.01 C 165.91 932.35 166.03 875.68 166.02 819.01 C 166.22 794.03 164.77 768.84 168.89 744.08 C 171.93 726.96 176.58 709.98 184.42 694.39 C 197.97 666.61 220.10 643.14 247.05 628.02 C 265.32 617.89 285.77 611.95 306.52 609.88 M 327.60 663.80 C 301.91 667.09 276.66 676.89 257.01 694.04 C 228.11 718.85 210.47 756.81 211.55 795.02 C 211.46 825.66 211.21 856.31 211.84 886.95 C 214.89 921.18 231.60 953.88 257.33 976.63 C 279.50 996.06 308.29 1008.75 338.00 1009.14 C 351.32 1009.72 364.67 1009.29 378.00 1009.44 C 510.35 1009.44 642.70 1009.45 775.05 1009.35 C 805.59 1009.05 835.25 996.09 857.73 975.70 C 883.00 952.96 900.06 920.30 900.98 886.01 C 900.93 856.99 901.29 827.98 901.00 798.96 C 901.11 788.28 901.09 777.51 898.93 766.99 C 890.59 723.46 857.78 685.80 816.16 670.85 C 798.03 663.74 778.28 662.81 759.03 662.66 C 628.04 662.75 497.04 662.77 366.05 662.67 C 353.23 662.68 340.37 662.41 327.60 663.80 M 423.20 1062.27 C 419.20 1063.07 415.22 1064.41 411.91 1066.86 C 398.91 1076.12 395.46 1096.65 405.78 1109.14 C 427.72 1136.97 457.98 1158.27 491.68 1169.29 C 534.27 1183.65 581.83 1184.05 624.13 1168.39 C 655.38 1156.99 682.90 1136.74 704.91 1111.98 C 710.63 1105.17 714.69 1096.20 713.34 1087.14 C 711.53 1075.75 702.82 1065.56 691.62 1062.51 C 683.27 1060.34 674.16 1063.11 667.81 1068.79 C 661.61 1074.25 656.38 1080.70 650.29 1086.29 C 629.50 1105.67 602.33 1117.91 574.14 1121.19 C 533.12 1126.08 489.77 1113.00 459.68 1084.36 C 453.20 1078.50 448.92 1070.34 441.30 1065.74 C 436.02 1062.24 429.39 1061.03 423.20 1062.27 Z" />
<path fill="#ffffff" opacity="1.00" d=" M 384.07 791.06 C 394.72 788.65 405.72 791.62 415.55 795.76 C 433.07 803.87 445.03 821.86 447.27 840.85 C 448.84 852.34 445.54 864.06 439.84 874.01 C 435.48 881.66 428.85 887.72 421.61 892.59 C 413.32 897.82 403.55 900.15 393.93 901.36 C 379.40 902.19 364.73 896.67 354.03 886.86 C 343.19 877.08 337.52 862.47 336.97 848.06 C 336.53 837.44 339.60 826.91 344.66 817.65 C 352.78 803.30 367.93 793.68 384.07 791.06 Z" />
<path fill="#ffffff" opacity="1.00" d=" M 710.41 791.62 C 722.34 788.43 734.97 790.98 746.06 795.89 C 763.52 804.00 775.97 821.81 777.80 840.95 C 779.07 852.51 776.32 864.35 770.21 874.22 C 762.56 887.38 748.87 896.41 734.17 899.74 C 724.20 902.07 713.69 901.31 703.93 898.41 C 688.13 893.29 674.52 880.75 669.28 864.84 C 664.98 852.32 665.21 838.29 670.04 825.96 C 676.27 808.50 692.31 795.22 710.41 791.62 Z" />
</g>
</svg>
